<svg width="102" height="101" viewBox="0 0 102 101" fill="none" xmlns="http://www.w3.org/2000/svg"><g clip-path="url(#clip0)"><rect x="-2" width="104" height="101" fill="#212331"/><path d="M50.5 9C44.1591 9 39.2053 11.4187 35.6385 16.256C32.0717 21.0933 30.2884 27.2768 30.2884 34.8065C30.2443 44.1617 33.1506 51.5774 39.0071 57.0536C39.7557 57.7837 40.0199 58.7192 39.7997 59.8601L38.2805 63.1458C37.7962 64.2411 37.0806 65.0967 36.1339 65.7128C35.1871 66.3289 33.1946 67.2073 30.1562 68.3482C30.0241 68.3938 27.239 69.3294 21.8008 71.1548C16.3626 72.9802 13.4673 73.9841 13.1151 74.1667C9.41619 75.7639 6.99432 77.4296 5.84943 79.1637C4.61648 82.0387 4 89.3175 4 101H97C97 89.3175 96.3835 82.0387 95.1506 79.1637C94.0057 77.4296 91.5838 75.7639 87.8849 74.1667C87.5327 73.9841 84.6374 72.9802 79.1992 71.1548C73.761 69.3294 70.9758 68.3938 70.8438 68.3482C67.8054 67.2073 65.8129 66.3289 64.8661 65.7128C63.9194 65.0967 63.2038 64.2411 62.7195 63.1458L61.2003 59.8601C60.9801 58.7192 61.2443 57.7837 61.9929 57.0536C67.8494 51.5774 70.7557 44.1617 70.7116 34.8065C70.7116 27.2768 68.9283 21.0933 65.3615 16.256C61.7947 11.4187 56.8409 9 50.5 9Z" fill="white"/></g><defs><clipPath id="clip0"><rect width="102" height="101" rx="50" fill="white"/></clipPath></defs></svg>
